<svg id="Layer_1" data-name="Layer 1" xmlns="http://www.w3.org/2000/svg" viewBox="0 0 125 38"><defs><style>.cls-1{fill:#0b36a8;}.cls-2{fill:#fff;}</style></defs><title>logo</title><ellipse class="cls-1" cx="19.009" cy="19" rx="19.009" ry="19"/><path class="cls-2" d="M11.876,15.151q-0.045-.3-0.105-0.631c0,0.09.015,0.021,0.046-.21s0.07-.626.12-1.188a1.436,1.436,0,0,0,.173-0.294c0.035-.084.068-0.162,0.1-0.233a2.442,2.442,0,0,1-.2-0.278,0.388,0.388,0,0,1-.068-0.188q0.12-.917.226-1.745a0.929,0.929,0,0,1,.263-0.511,4.565,4.565,0,0,1,.685-0.617,5.3,5.3,0,0,1,.677-0.481,4.689,4.689,0,0,1,.631-0.316A1.3,1.3,0,0,0,14.9,8.233a0.214,0.214,0,0,1,.165-0.09,0.4,0.4,0,0,1,.369.241,1.589,1.589,0,0,1,.128.722,2.78,2.78,0,0,1-.128.707,2.753,2.753,0,0,0-.128.662q0,0.09.023,0.692T15.4,12.9a8.108,8.108,0,0,0,.233,1.73,19.439,19.439,0,0,0,.564,1.91A6.373,6.373,0,0,0,17.2,18.469a1.556,1.556,0,0,0,1.189.639,2.491,2.491,0,0,0,1.354-.662,15.217,15.217,0,0,0,1.987-1.986q0.873-1.022,1.558-1.91A14.564,14.564,0,0,0,24.4,12.926a5.984,5.984,0,0,1,.918-1.188,7.245,7.245,0,0,1,1.2-.963l0.346-.2a0.487,0.487,0,0,1,.211-0.075,0.477,0.477,0,0,1,.408.406,3.871,3.871,0,0,1,.141,1.2q-0.09.736-.15,1.459-0.136,1.128-.4,2.346t-0.683,2.527q-0.21.662-.361,1.158a7.377,7.377,0,0,0-.21.843c-0.02.13-.048,0.293-0.083,0.488s-0.073.424-.113,0.684c-0.1.251-.21,0.5-0.33,0.753a3.263,3.263,0,0,0-.248.721q-0.1.421-.172,0.978c0,0.07-.005.161-0.015,0.271s-0.021.225-.03,0.346q-0.345,1.534-.706,2.979a1.624,1.624,0,0,1-.135.346,1.438,1.438,0,0,0-.443.255,3.183,3.183,0,0,0-.518.542,3.99,3.99,0,0,1-.451.443,0.539,0.539,0,0,1-.271.143,0.264,0.264,0,0,1-.2-0.075,0.352,0.352,0,0,1-.075-0.255,0.8,0.8,0,0,1,.045-0.2,7.052,7.052,0,0,0,.369-1.474q0.158-.962.294-2.377,0.015-.3.24-1.625t0.662-3.67q0.059-.376.158-0.925t0.248-1.256c0.07-.241.128-0.449,0.173-0.624a1.751,1.751,0,0,0,.068-0.384,0.362,0.362,0,0,0-.052-0.218,0.189,0.189,0,0,0-.159-0.068,0.73,0.73,0,0,0-.331.233,6.9,6.9,0,0,0-.6.7c-0.14.17-.283,0.351-0.429,0.541s-0.3.376-.459,0.557q-0.407.421-.753,0.8l-1.114,1.113-0.369.226q-0.218.135-.519,0.316a2.287,2.287,0,0,1-.911.774,2.534,2.534,0,0,1-1.152.323,2.1,2.1,0,0,1-1.211-.4,4.351,4.351,0,0,1-1.121-1.226q-0.241-.407-0.474-0.812t-0.5-.812l-0.075.015a6.094,6.094,0,0,0-.278,1.219q-0.2,1.129-.519,3.309-0.347,2.241-.527,3.52a15.7,15.7,0,0,0-.181,1.654,1.848,1.848,0,0,1-.188.79,0.628,0.628,0,0,1-.489.323,4.082,4.082,0,0,0-.466.083q-0.3.068-.722,0.172a0.408,0.408,0,0,1-.135-0.052,0.125,0.125,0,0,1-.06-0.114l0.09-.556-0.15-.572q0.09-.467.181-0.9,0.059-.9.105-1.7a4.226,4.226,0,0,1,.113-0.556,2.678,2.678,0,0,0,.1-0.586,1.563,1.563,0,0,0-.045-0.308,1.582,1.582,0,0,1-.045-0.308A16.722,16.722,0,0,1,11.1,21.56a16.841,16.841,0,0,0,.263-2.467Q11.32,18.747,11.26,18.4q0.076-.542.241-1.354T11.876,15.151Z"/><path class="cls-2" d="M72.57,8.175v21.9H68.947V13.658L62.613,30.074h-3.15L53.1,13.658V30.074H49.506V8.175h4.348L61.1,25.663,68.222,8.175H72.57Z"/><path class="cls-2" d="M87.883,13.658a6.286,6.286,0,0,1,2.363,3.087V12.712h3.592V30.074H90.246V26.04a6.275,6.275,0,0,1-2.363,3.087,6.854,6.854,0,0,1-4.033,1.167A7.684,7.684,0,0,1,79.8,29.222a7.312,7.312,0,0,1-2.789-3.087A10.523,10.523,0,0,1,76,21.379a10.461,10.461,0,0,1,1.008-4.728A7.327,7.327,0,0,1,79.8,13.563a7.707,7.707,0,0,1,4.049-1.072A6.873,6.873,0,0,1,87.883,13.658Zm-6.759,3.513a5.9,5.9,0,0,0-1.433,4.208,5.9,5.9,0,0,0,1.433,4.205,5,5,0,0,0,3.828,1.528,5.2,5.2,0,0,0,2.71-.71,5.026,5.026,0,0,0,1.89-2,6.309,6.309,0,0,0,.694-3.023,6.336,6.336,0,0,0-.694-3.01,5,5,0,0,0-1.89-2.015,5.2,5.2,0,0,0-2.71-.71A5,5,0,0,0,81.124,17.171Z"/><path class="cls-2" d="M104.268,13.422a7.149,7.149,0,0,1,3.78-.992v3.905h-1.069a5.884,5.884,0,0,0-3.8,1.151,4.59,4.59,0,0,0-1.433,3.8v8.79H98.155V12.712h3.592v3.4A6.689,6.689,0,0,1,104.268,13.422Z"/><path class="cls-2" d="M120.559,30.074l-6.239-7.721v7.721h-3.592V6.757h3.592V20.117l6.175-7.405h4.318l-7.564,8.634L125,30.074h-4.441Z"/></svg>